<svg width="36" height="36" viewBox="0 0 36 36" fill="none" xmlns="http://www.w3.org/2000/svg">
<path d="M17.5714 13.7137C16.7439 13.7141 15.9351 13.9657 15.2472 14.4369C14.5594 14.9081 14.0233 15.5776 13.7069 16.3608C13.3904 17.1441 13.3078 18.0058 13.4694 18.8372C13.631 19.6685 14.0296 20.4321 14.6149 21.0314C15.2001 21.6307 15.9457 22.0388 16.7573 22.204C17.5689 22.3693 18.4101 22.2843 19.1746 21.9598C19.9391 21.6354 20.5924 21.086 21.0521 20.3811C21.5118 19.6763 21.7572 18.8477 21.7572 18C21.7564 16.8632 21.315 15.7732 20.5302 14.9695C19.7453 14.1658 18.6812 13.7142 17.5714 13.7137ZM27.3542 10.4191C27.1412 9.86612 26.8195 9.36387 26.4091 8.94351C25.9988 8.52315 25.5085 8.19365 24.9687 7.97545C23.3214 7.30929 19.3992 7.45875 17.5714 7.45875C15.7437 7.45875 11.8254 7.30366 10.1734 7.97545C9.63357 8.19365 9.14328 8.52315 8.73293 8.94351C8.32257 9.36387 8.00092 9.86612 7.78791 10.4191C7.13839 12.1066 7.28351 16.1285 7.28351 17.9992C7.28351 19.8699 7.13839 23.887 7.79105 25.5801C8.00406 26.1331 8.32571 26.6353 8.73606 27.0557C9.14641 27.476 9.63671 27.8055 10.1765 28.0237C11.8238 28.6899 15.746 28.5404 17.5746 28.5404C19.4031 28.5404 23.3198 28.6955 24.9718 28.0237C25.5116 27.8055 26.0019 27.476 26.4123 27.0557C26.8226 26.6353 27.1443 26.1331 27.3573 25.5801C28.0123 23.8926 27.8617 19.8707 27.8617 18C27.8617 16.1293 28.0123 12.113 27.3573 10.4199L27.3542 10.4191ZM17.5714 24.5893C16.2992 24.5893 15.0556 24.2028 13.9978 23.4788C12.94 22.7548 12.1155 21.7256 11.6287 20.5216C11.1418 19.3176 11.0144 17.9927 11.2626 16.7145C11.5108 15.4363 12.1234 14.2622 13.023 13.3407C13.9226 12.4191 15.0688 11.7916 16.3165 11.5373C17.5643 11.2831 18.8576 11.4136 20.033 11.9123C21.2084 12.411 22.213 13.2556 22.9198 14.3392C23.6266 15.4228 24.0038 16.6968 24.0038 18C24.0049 18.8656 23.8392 19.7229 23.5163 20.5229C23.1934 21.3228 22.7196 22.0496 22.1221 22.6617C21.5246 23.2738 20.8151 23.7591 20.0342 24.0899C19.2533 24.4206 18.4164 24.5903 17.5714 24.5893ZM24.269 12.6723C23.972 12.6725 23.6816 12.5824 23.4346 12.4135C23.1876 12.2446 22.995 12.0044 22.8813 11.7234C22.7675 11.4424 22.7377 11.1331 22.7955 10.8347C22.8534 10.5363 22.9963 10.2622 23.2062 10.047C23.4162 9.83184 23.6837 9.68527 23.975 9.62586C24.2663 9.56645 24.5682 9.59686 24.8426 9.71325C25.117 9.82964 25.3515 10.0268 25.5165 10.2797C25.6815 10.5327 25.7696 10.8301 25.7696 11.1343C25.7704 11.3363 25.7323 11.5365 25.6574 11.7234C25.5826 11.9103 25.4724 12.0802 25.3333 12.2234C25.1941 12.3666 25.0288 12.4803 24.8467 12.5579C24.6646 12.6354 24.4693 12.6754 24.2721 12.6755L24.269 12.6723ZM31.3776 0H3.76531C2.76668 0 1.80896 0.406377 1.10283 1.12973C0.396701 1.85309 0 2.83416 0 3.85714L0 32.1429C0 33.1658 0.396701 34.1469 1.10283 34.8703C1.80896 35.5936 2.76668 36 3.76531 36H31.3776C32.3762 36 33.3339 35.5936 34.04 34.8703C34.7462 34.1469 35.1429 33.1658 35.1429 32.1429V3.85714C35.1429 2.83416 34.7462 1.85309 34.04 1.12973C33.3339 0.406377 32.3762 0 31.3776 0ZM30.0346 23.3036C29.9334 25.3631 29.4745 27.188 28.0068 28.6875C26.5391 30.187 24.7592 30.6667 22.7511 30.7647C20.6794 30.8845 14.4682 30.8845 12.3965 30.7647C10.386 30.6611 8.61078 30.1902 7.14075 28.6875C5.67071 27.1848 5.20867 25.3591 5.11297 23.3036C4.99609 21.1805 4.99609 14.8171 5.11297 12.6964C5.21416 10.6369 5.66757 8.81196 7.14075 7.3125C8.61392 5.81304 10.3938 5.33893 12.3965 5.24089C14.4682 5.12116 20.6794 5.12116 22.7511 5.24089C24.7616 5.34455 26.5423 5.81545 28.0068 7.31812C29.4714 8.8208 29.9389 10.6465 30.0346 12.7061C30.1515 14.8211 30.1515 21.1789 30.0346 23.3036Z" fill="white"/>
</svg>
