<?xml version="1.0" encoding="UTF-8"?><svg id="uuid-a7493c7b-b8cd-4554-94a6-af2309a68ae6" xmlns="http://www.w3.org/2000/svg" viewBox="0 0 194.58 73.13"><defs><style>.uuid-24930ec2-3616-4217-a4e7-04bb8d7e221b{fill:#fff;}</style></defs><g id="uuid-1015f324-197d-403c-8987-fa46b9684007"><g><g><path class="uuid-24930ec2-3616-4217-a4e7-04bb8d7e221b" d="M73.76,31.11c.03,.49,.12,.98,.27,1.47,.16,.49,.44,.97,.85,1.43,.41,.46,1.01,.85,1.8,1.14,.79,.3,1.78,.45,2.97,.45,.78,0,1.5-.05,2.17-.16,.67-.1,1.29-.29,1.84-.56,.56-.27,.99-.65,1.32-1.12,.32-.48,.48-1.06,.48-1.76,0-.98-.39-1.7-1.18-2.15-.79-.45-2.07-.88-3.86-1.3l-2.99-.7c-1.5-.36-2.71-.69-3.63-.99-.92-.3-1.78-.72-2.58-1.28-.8-.56-1.44-1.32-1.92-2.28-.48-.97-.72-2.17-.72-3.62,0-.93,.15-1.86,.45-2.81,.3-.94,.83-1.85,1.61-2.73,.78-.88,1.88-1.6,3.31-2.17,1.44-.57,3.21-.85,5.33-.85s3.73,.29,5.16,.87,2.55,1.33,3.37,2.25c.83,.92,1.42,1.88,1.78,2.9,.36,1.02,.54,2.01,.54,2.96h-5.58c-.05-.46-.15-.91-.29-1.34-.14-.43-.41-.86-.79-1.3-.39-.44-.96-.81-1.71-1.1-.75-.3-1.72-.45-2.91-.45-.59,0-1.18,.06-1.74,.17-.57,.12-1.09,.3-1.55,.56-.47,.26-.84,.61-1.12,1.05-.29,.44-.43,.96-.43,1.55,0,.52,.09,.95,.27,1.3s.42,.63,.72,.83c.3,.21,.6,.37,.91,.48,.31,.12,.66,.21,1.05,.29l6.79,1.66c1.09,.26,2.04,.56,2.87,.91,.83,.35,1.58,.8,2.25,1.36,.67,.56,1.2,1.27,1.59,2.13,.39,.87,.58,1.89,.58,3.08,0,1.94-.42,3.53-1.26,4.78-.84,1.25-1.87,2.18-3.08,2.79-1.22,.61-2.4,1.01-3.55,1.22-1.15,.21-2.18,.31-3.08,.31-2.38,0-4.37-.3-5.97-.91-1.6-.61-2.83-1.38-3.68-2.32-.85-.94-1.44-1.94-1.76-2.98-.32-1.05-.48-2.07-.48-3.08h5.58Z"/><path class="uuid-24930ec2-3616-4217-a4e7-04bb8d7e221b" d="M115.95,16.78h-14.77v5.85h13.57v4.92h-13.57v7.2h15.43v4.92h-21.13V11.86h20.47v4.92Z"/><path class="uuid-24930ec2-3616-4217-a4e7-04bb8d7e221b" d="M133.17,39.67h-5.82V16.78h-8.41v-4.92h22.64v4.92h-8.41v22.88Z"/><path class="uuid-24930ec2-3616-4217-a4e7-04bb8d7e221b" d="M165.5,16.78h-14.77v5.85h13.57v4.92h-13.57v7.2h15.43v4.92h-21.13V11.86h20.47v4.92Z"/><path class="uuid-24930ec2-3616-4217-a4e7-04bb8d7e221b" d="M188.65,20.96c-.15-.62-.34-1.17-.56-1.65-.22-.48-.54-.96-.97-1.45-.43-.49-1.02-.9-1.78-1.22-.76-.32-1.71-.48-2.85-.48-.78,0-1.56,.15-2.35,.45-.79,.3-1.53,.81-2.23,1.53-.7,.72-1.26,1.73-1.69,3.02-.43,1.29-.64,2.87-.64,4.72,0,1.29,.14,2.5,.41,3.64,.27,1.14,.68,2.14,1.24,3.02,.56,.88,1.27,1.57,2.15,2.07,.88,.5,1.91,.75,3.1,.75,1.63,0,2.98-.45,4.05-1.34,1.07-.89,1.78-2.19,2.11-3.89h5.82c-.59,3.15-1.92,5.65-3.97,7.49-2.06,1.85-4.76,2.77-8.12,2.77-3.83,0-6.9-1.26-9.23-3.79-2.33-2.53-3.49-6.13-3.49-10.8,0-2.37,.32-4.48,.97-6.33,.65-1.85,1.55-3.39,2.71-4.63,1.16-1.24,2.52-2.17,4.07-2.79,1.55-.62,3.23-.93,5.04-.93,1.96,0,3.7,.3,5.21,.91,1.51,.61,2.75,1.4,3.72,2.38,.97,.98,1.71,2.05,2.21,3.19,.5,1.15,.79,2.27,.87,3.35h-5.82Z"/></g><g><path class="uuid-24930ec2-3616-4217-a4e7-04bb8d7e221b" d="M68.41,48.99h.62c0,.53,.17,.95,.51,1.24s.8,.44,1.4,.44c.53,0,.94-.12,1.24-.36s.45-.56,.45-.98c0-.39-.11-.68-.32-.88s-.63-.38-1.26-.55l-.64-.16c-.69-.18-1.17-.4-1.44-.68s-.4-.66-.4-1.16c0-.55,.2-.99,.6-1.32s.94-.5,1.61-.5c.71,0,1.27,.18,1.67,.54s.6,.87,.61,1.52h-.63c0-.48-.16-.85-.45-1.11s-.7-.39-1.23-.39c-.5,0-.88,.11-1.15,.34s-.41,.54-.41,.95c0,.31,.09,.55,.27,.73s.47,.32,.88,.42l.79,.2c.78,.2,1.33,.44,1.65,.74s.47,.71,.47,1.24c0,.61-.21,1.08-.62,1.43s-.98,.52-1.7,.52c-.81,0-1.43-.19-1.86-.57s-.65-.92-.65-1.62v-.05Z"/><path class="uuid-24930ec2-3616-4217-a4e7-04bb8d7e221b" d="M79.15,51.04v-6.77h4.43v.56h-3.81v2.47h3.49v.54h-3.49v2.65h3.93v.56h-4.55Z"/><path class="uuid-24930ec2-3616-4217-a4e7-04bb8d7e221b" d="M94.31,48.83h.61c-.05,.75-.32,1.34-.79,1.76-.48,.42-1.11,.64-1.91,.64-.91,0-1.63-.32-2.16-.96s-.79-1.51-.79-2.63,.27-1.97,.8-2.6,1.25-.95,2.17-.95c.77,0,1.39,.2,1.86,.59s.73,.91,.76,1.57h-.61c-.05-.5-.26-.89-.62-1.17s-.82-.43-1.39-.43c-.73,0-1.3,.26-1.71,.78s-.61,1.26-.61,2.2,.21,1.7,.62,2.24,.99,.81,1.72,.81c.6,0,1.08-.16,1.44-.49s.57-.78,.61-1.36Z"/><path class="uuid-24930ec2-3616-4217-a4e7-04bb8d7e221b" d="M100.83,51.04v-6.77h2.26c.52,0,.9,.02,1.14,.06s.44,.11,.61,.21c.27,.15,.47,.36,.62,.62s.22,.57,.22,.9c0,.42-.09,.77-.28,1.05s-.46,.49-.81,.61c.28,.09,.47,.23,.59,.42s.2,.57,.25,1.15l.09,1.02c.01,.16,.04,.29,.07,.4s.08,.18,.14,.23v.09h-.69c-.04-.07-.07-.16-.09-.28s-.04-.25-.06-.42l-.08-.9c-.05-.62-.16-1.01-.33-1.18s-.53-.25-1.05-.25h-1.98v3.03h-.62Zm.62-3.58h1.8c.63,0,1.09-.11,1.36-.32s.42-.56,.42-1.04c0-.22-.04-.42-.13-.6s-.21-.32-.37-.43c-.13-.09-.28-.15-.45-.18s-.46-.06-.86-.06h-1.76v2.63Z"/><path class="uuid-24930ec2-3616-4217-a4e7-04bb8d7e221b" d="M111.63,51.04v-6.77h4.43v.56h-3.81v2.47h3.49v.54h-3.49v2.65h3.93v.56h-4.55Z"/><path class="uuid-24930ec2-3616-4217-a4e7-04bb8d7e221b" d="M123.47,51.04v-6.21h-2.1v-.56h4.84v.56h-2.1v6.21h-.64Z"/><path class="uuid-24930ec2-3616-4217-a4e7-04bb8d7e221b" d="M130.63,51.04l2.57-6.77h.75l2.57,6.77h-.65l-.77-2.08h-3.04l-.78,2.08h-.65Zm1.63-2.62h2.63l-1.32-3.48-1.31,3.48Z"/><path class="uuid-24930ec2-3616-4217-a4e7-04bb8d7e221b" d="M141.94,51.04v-6.77h2.26c.52,0,.9,.02,1.14,.06s.44,.11,.61,.21c.27,.15,.47,.36,.62,.62s.22,.57,.22,.9c0,.42-.09,.77-.28,1.05s-.46,.49-.81,.61c.28,.09,.47,.23,.59,.42s.2,.57,.25,1.15l.09,1.02c.01,.16,.04,.29,.07,.4s.08,.18,.14,.23v.09h-.69c-.04-.07-.07-.16-.09-.28s-.04-.25-.06-.42l-.08-.9c-.05-.62-.16-1.01-.33-1.18s-.53-.25-1.05-.25h-1.98v3.03h-.62Zm.62-3.58h1.8c.63,0,1.09-.11,1.36-.32s.42-.56,.42-1.04c0-.22-.04-.42-.13-.6s-.21-.32-.37-.43c-.13-.09-.28-.15-.45-.18s-.46-.06-.86-.06h-1.76v2.63Z"/><path class="uuid-24930ec2-3616-4217-a4e7-04bb8d7e221b" d="M152.78,51.04v-6.77h.64v6.77h-.64Z"/><path class="uuid-24930ec2-3616-4217-a4e7-04bb8d7e221b" d="M158.89,51.04l2.57-6.77h.75l2.57,6.77h-.65l-.77-2.08h-3.04l-.78,2.08h-.65Zm1.63-2.62h2.63l-1.32-3.48-1.31,3.48Z"/><path class="uuid-24930ec2-3616-4217-a4e7-04bb8d7e221b" d="M180,44.27h.46c.56,0,.98,.03,1.26,.09s.52,.15,.72,.28c.42,.26,.74,.65,.95,1.16s.33,1.13,.33,1.84c0,.77-.12,1.41-.36,1.94s-.59,.91-1.06,1.17c-.2,.1-.44,.18-.72,.22s-.72,.07-1.31,.07h-1.86v-6.77h1.59Zm-.97,6.21h1.31c.51,0,.89-.02,1.12-.06s.43-.1,.59-.2c.34-.21,.6-.52,.77-.94s.25-.96,.25-1.63-.08-1.16-.24-1.58-.4-.74-.73-.95c-.17-.11-.37-.19-.61-.23s-.65-.07-1.22-.07h-1.24v5.65Z"/><path class="uuid-24930ec2-3616-4217-a4e7-04bb8d7e221b" d="M189.68,51.04v-6.77h4.43v.56h-3.81v2.47h3.49v.54h-3.49v2.65h3.93v.56h-4.55Z"/><path class="uuid-24930ec2-3616-4217-a4e7-04bb8d7e221b" d="M70.16,62.33v-6.21h-2.1v-.56h4.84v.56h-2.1v6.21h-.64Z"/><path class="uuid-24930ec2-3616-4217-a4e7-04bb8d7e221b" d="M73.75,62.33v-6.77h4.43v.56h-3.81v2.47h3.49v.54h-3.49v2.65h3.93v.56h-4.55Z"/><path class="uuid-24930ec2-3616-4217-a4e7-04bb8d7e221b" d="M84.19,60.12h.61c-.05,.75-.32,1.34-.79,1.76s-1.11,.64-1.91,.64c-.91,0-1.63-.32-2.16-.96s-.79-1.51-.79-2.63,.27-1.97,.8-2.6,1.25-.95,2.17-.95c.77,0,1.39,.2,1.86,.59s.73,.91,.76,1.57h-.61c-.05-.5-.26-.89-.62-1.17s-.82-.43-1.39-.43c-.73,0-1.3,.26-1.71,.78s-.61,1.26-.61,2.2,.21,1.7,.62,2.24,.99,.81,1.72,.81c.6,0,1.08-.16,1.44-.49s.57-.78,.61-1.36Z"/><path class="uuid-24930ec2-3616-4217-a4e7-04bb8d7e221b" d="M86,62.33v-6.77h.69l3.83,5.81v-5.81h.6v6.77h-.69l-3.81-5.81v5.81h-.61Z"/><path class="uuid-24930ec2-3616-4217-a4e7-04bb8d7e221b" d="M92.34,58.95c0-1.1,.28-1.96,.84-2.6,.56-.64,1.31-.96,2.26-.96s1.71,.32,2.27,.96c.56,.64,.84,1.51,.84,2.6s-.28,1.96-.84,2.6c-.56,.64-1.32,.96-2.27,.96s-1.7-.32-2.26-.96-.84-1.51-.84-2.6Zm.64,0c0,.92,.22,1.66,.66,2.2s1.04,.81,1.79,.81,1.36-.27,1.8-.81,.67-1.27,.67-2.2-.22-1.67-.67-2.21c-.44-.54-1.05-.81-1.8-.81s-1.34,.27-1.79,.82-.67,1.28-.67,2.2Z"/><path class="uuid-24930ec2-3616-4217-a4e7-04bb8d7e221b" d="M99.76,62.33v-6.77h.64v6.21h3.46v.56h-4.1Z"/><path class="uuid-24930ec2-3616-4217-a4e7-04bb8d7e221b" d="M104.03,58.95c0-1.1,.28-1.96,.84-2.6s1.31-.96,2.26-.96,1.71,.32,2.27,.96,.84,1.51,.84,2.6-.28,1.96-.84,2.6-1.32,.96-2.27,.96-1.7-.32-2.26-.96c-.56-.64-.84-1.51-.84-2.6Zm.64,0c0,.92,.22,1.66,.66,2.2s1.04,.81,1.79,.81,1.36-.27,1.8-.81,.67-1.27,.67-2.2-.22-1.67-.67-2.21-1.05-.81-1.8-.81-1.34,.27-1.79,.82-.67,1.28-.67,2.2Z"/><path class="uuid-24930ec2-3616-4217-a4e7-04bb8d7e221b" d="M116.63,62.33l-.06-1.19c-.21,.43-.52,.77-.94,1.02s-.89,.37-1.43,.37c-.94,0-1.68-.32-2.22-.96-.54-.64-.81-1.51-.81-2.62s.28-1.97,.83-2.6c.55-.63,1.3-.95,2.24-.95,.79,0,1.43,.19,1.92,.56s.79,.9,.89,1.58h-.64c-.1-.5-.33-.89-.72-1.18s-.86-.43-1.44-.43c-.78,0-1.39,.26-1.81,.78-.42,.52-.64,1.26-.64,2.22s.21,1.66,.64,2.2c.43,.54,1,.81,1.73,.81s1.33-.22,1.74-.66,.62-1.05,.62-1.85v-.03h-2.24v-.56h2.83v3.47h-.5Z"/><path class="uuid-24930ec2-3616-4217-a4e7-04bb8d7e221b" d="M118.55,62.33v-6.77h.64v6.77h-.64Z"/><path class="uuid-24930ec2-3616-4217-a4e7-04bb8d7e221b" d="M119.94,62.33l2.57-6.77h.75l2.57,6.77h-.65l-.77-2.08h-3.04l-.78,2.08h-.65Zm1.63-2.62h2.63l-1.32-3.48-1.31,3.48Z"/><path class="uuid-24930ec2-3616-4217-a4e7-04bb8d7e221b" d="M130.95,62.33v-6.77h4.43v.56h-3.81v2.47h3.49v.54h-3.49v2.65h3.93v.56h-4.55Z"/><path class="uuid-24930ec2-3616-4217-a4e7-04bb8d7e221b" d="M138.24,55.56h.46c.56,0,.98,.03,1.26,.09s.52,.15,.72,.28c.42,.26,.74,.65,.95,1.16,.22,.51,.33,1.13,.33,1.84,0,.77-.12,1.41-.36,1.94s-.59,.91-1.06,1.17c-.2,.1-.44,.18-.72,.22s-.72,.07-1.31,.07h-1.86v-6.77h1.59Zm-.97,6.21h1.31c.51,0,.89-.02,1.12-.06s.43-.1,.59-.2c.34-.21,.6-.52,.77-.94,.17-.42,.25-.96,.25-1.63s-.08-1.16-.24-1.58-.4-.74-.73-.95c-.17-.11-.37-.19-.61-.23s-.65-.07-1.22-.07h-1.24v5.65Z"/><path class="uuid-24930ec2-3616-4217-a4e7-04bb8d7e221b" d="M143.16,55.56h.62v4.26c0,.75,.15,1.29,.46,1.63s.8,.51,1.49,.51,1.18-.17,1.49-.51,.47-.88,.47-1.63v-4.26h.62v4.35c0,.86-.22,1.51-.65,1.95s-1.08,.66-1.93,.66-1.49-.22-1.92-.65-.65-1.09-.65-1.95v-4.35Z"/><path class="uuid-24930ec2-3616-4217-a4e7-04bb8d7e221b" d="M154.52,60.12h.61c-.05,.75-.32,1.34-.79,1.76s-1.11,.64-1.91,.64c-.91,0-1.63-.32-2.16-.96-.53-.64-.79-1.51-.79-2.63s.27-1.97,.8-2.6,1.25-.95,2.17-.95c.77,0,1.39,.2,1.86,.59,.47,.39,.73,.91,.76,1.57h-.61c-.05-.5-.26-.89-.62-1.17s-.82-.43-1.39-.43c-.73,0-1.3,.26-1.71,.78s-.61,1.26-.61,2.2,.21,1.7,.62,2.24c.42,.54,.99,.81,1.72,.81,.6,0,1.08-.16,1.44-.49s.57-.78,.61-1.36Z"/><path class="uuid-24930ec2-3616-4217-a4e7-04bb8d7e221b" d="M155.53,62.33l2.57-6.77h.75l2.57,6.77h-.65l-.77-2.08h-3.04l-.78,2.08h-.65Zm1.63-2.62h2.63l-1.32-3.48-1.31,3.48Z"/><path class="uuid-24930ec2-3616-4217-a4e7-04bb8d7e221b" d="M166.88,60.12h.61c-.05,.75-.32,1.34-.79,1.76s-1.11,.64-1.91,.64c-.91,0-1.63-.32-2.16-.96s-.79-1.51-.79-2.63,.27-1.97,.8-2.6,1.25-.95,2.17-.95c.77,0,1.39,.2,1.86,.59s.73,.91,.76,1.57h-.61c-.05-.5-.26-.89-.62-1.17s-.82-.43-1.39-.43c-.73,0-1.3,.26-1.71,.78s-.61,1.26-.61,2.2,.21,1.7,.62,2.24,.99,.81,1.72,.81c.6,0,1.08-.16,1.44-.49s.57-.78,.61-1.36Z"/><path class="uuid-24930ec2-3616-4217-a4e7-04bb8d7e221b" d="M168.72,62.33v-6.77h.64v6.77h-.64Z"/><path class="uuid-24930ec2-3616-4217-a4e7-04bb8d7e221b" d="M170.62,58.95c0-1.1,.28-1.96,.84-2.6,.56-.64,1.31-.96,2.26-.96s1.71,.32,2.27,.96,.84,1.51,.84,2.6-.28,1.96-.84,2.6-1.32,.96-2.27,.96-1.7-.32-2.26-.96-.84-1.51-.84-2.6Zm.64,0c0,.92,.22,1.66,.66,2.2,.44,.54,1.04,.81,1.79,.81s1.36-.27,1.8-.81c.44-.54,.67-1.27,.67-2.2s-.22-1.67-.67-2.21-1.05-.81-1.8-.81-1.34,.27-1.79,.82c-.45,.55-.67,1.28-.67,2.2Z"/><path class="uuid-24930ec2-3616-4217-a4e7-04bb8d7e221b" d="M178.05,62.33v-6.77h.69l3.83,5.81v-5.81h.6v6.77h-.69l-3.81-5.81v5.81h-.61Z"/><path class="uuid-24930ec2-3616-4217-a4e7-04bb8d7e221b" d="M183.88,62.33l2.57-6.77h.75l2.57,6.77h-.65l-.77-2.08h-3.04l-.78,2.08h-.65Zm1.63-2.62h2.63l-1.32-3.48-1.31,3.48Z"/><path class="uuid-24930ec2-3616-4217-a4e7-04bb8d7e221b" d="M190.48,62.33v-6.77h.64v6.21h3.46v.56h-4.1Z"/></g><g><g><path class="uuid-24930ec2-3616-4217-a4e7-04bb8d7e221b" d="M31.14,15.81c-11.45,0-20.77,9.3-20.77,20.74s9.32,20.74,20.77,20.74,20.77-9.3,20.77-20.74S42.59,15.81,31.14,15.81Zm11.07,7.36H20.07c3.01-2.49,6.87-3.99,11.07-3.99s8.06,1.5,11.07,3.99Zm-1.06,11.03c-.89-3.78-3.87-6.76-7.66-7.65h7.66v7.65Zm-3.1,2.35c0,3.81-3.1,6.91-6.92,6.91s-6.92-3.1-6.92-6.91,3.1-6.91,6.92-6.91,6.92,3.1,6.92,6.91Zm-16.93-2.35v-7.65h7.66c-3.79,.89-6.77,3.87-7.66,7.65Zm0,4.7c.89,3.79,3.87,6.77,7.67,7.65h-7.67v-7.65Zm20.03,0v7.65h-7.67c3.79-.89,6.78-3.87,7.67-7.65Zm-27.4-2.35c0-4.2,1.5-8.05,3.99-11.06v22.12c-2.49-3.01-3.99-6.86-3.99-11.06Zm6.31,13.38h22.15c-3.01,2.49-6.87,3.99-11.07,3.99s-8.06-1.5-11.07-3.99Zm24.47-2.32V25.49c2.49,3.01,3.99,6.86,3.99,11.06s-1.5,8.05-3.99,11.06Z"/><path class="uuid-24930ec2-3616-4217-a4e7-04bb8d7e221b" d="M28.22,36.62c0,1.65,1.34,2.99,2.99,2.99s2.99-1.34,2.99-2.99-1.34-2.99-2.99-2.99-2.99,1.34-2.99,2.99Z"/></g><path class="uuid-24930ec2-3616-4217-a4e7-04bb8d7e221b" d="M34.76,12.4c-31.78,.11-28.17,30.48-28.17,30.48,0,0-4.98-9.63,2.38-23.35,13.12-11.21,25.54-7.87,25.78-7.13Z"/><path class="uuid-24930ec2-3616-4217-a4e7-04bb8d7e221b" d="M27.44,61.61c31.78-.11,28.17-30.48,28.17-30.48,0,0,4.98,9.63-2.38,23.35-13.12,11.21-25.54,7.87-25.78,7.13Z"/><g><g><path class="uuid-24930ec2-3616-4217-a4e7-04bb8d7e221b" d="M28.94,68.64C12.98,68.64,0,55.67,0,39.74c0-7.89,3.13-15.27,8.83-20.77l3.13-3.03-2.3,3.7c-2.73,4.4-4.18,9.46-4.18,14.65,0,15.34,12.5,27.82,27.86,27.82,7.26,0,14.13-2.78,19.36-7.83l3.13-3.03-2.3,3.7c-5.33,8.57-14.52,13.68-24.6,13.68ZM6.72,22.95c-3.66,4.81-5.64,10.63-5.64,16.79,0,15.34,12.5,27.82,27.86,27.82,8.25,0,15.88-3.56,21.13-9.69-4.86,3.45-10.67,5.32-16.73,5.32-15.96,0-28.94-12.96-28.94-28.9,0-3.92,.79-7.77,2.32-11.34Z"/><path class="uuid-24930ec2-3616-4217-a4e7-04bb8d7e221b" d="M50.32,58.09l2.3-3.7c2.73-4.4,4.18-9.46,4.18-14.65,0-15.34-12.5-27.82-27.86-27.82-7.26,0-14.13,2.78-19.36,7.83l-3.13,3.03,2.3-3.7c5.32-8.57,14.52-13.68,24.6-13.68,15.96,0,28.94,12.96,28.94,28.9,0,7.9-3.13,15.27-8.83,20.77l-3.13,3.03ZM28.94,10.84c15.96,0,28.94,12.96,28.94,28.9,0,3.92-.79,7.77-2.32,11.34,3.66-4.81,5.64-10.63,5.64-16.79,0-15.34-12.5-27.82-27.86-27.82-8.25,0-15.88,3.56-21.13,9.69,4.86-3.45,10.67-5.32,16.73-5.32Z"/><path class="uuid-24930ec2-3616-4217-a4e7-04bb8d7e221b" d="M33.34,63.19c-15.96,0-28.94-12.96-28.94-28.9,0-5.39,1.5-10.65,4.34-15.22l.08-.1c5.43-5.24,12.57-8.13,20.11-8.13,15.96,0,28.94,12.96,28.94,28.9,0,5.39-1.5,10.65-4.34,15.22l-.08,.1c-5.43,5.24-12.57,8.13-20.11,8.13ZM9.63,19.7c-2.71,4.38-4.14,9.43-4.14,14.59,0,15.34,12.5,27.82,27.86,27.82,7.24,0,14.09-2.76,19.31-7.78,2.71-4.38,4.14-9.43,4.14-14.59,0-15.34-12.5-27.82-27.86-27.82-7.24,0-14.09,2.76-19.31,7.78Z"/></g><g><polygon class="uuid-24930ec2-3616-4217-a4e7-04bb8d7e221b" points="13.71 14.56 12.96 13.78 25.82 1.36 26.58 2.13 13.71 14.56"/><path class="uuid-24930ec2-3616-4217-a4e7-04bb8d7e221b" d="M24.88,.51c.72-.69,1.87-.67,2.56,.04,.69,.72,.68,1.86-.04,2.56-.72,.69-1.86,.67-2.56-.04-.69-.72-.68-1.86,.04-2.56Z"/></g><g><rect class="uuid-24930ec2-3616-4217-a4e7-04bb8d7e221b" x="34.35" y="65.78" width="15.03" height="1.08" transform="translate(-33.76 45.54) rotate(-42.37)"/><path class="uuid-24930ec2-3616-4217-a4e7-04bb8d7e221b" d="M37.6,72.66c-.74,.67-1.88,.62-2.56-.12-.67-.74-.62-1.88,.12-2.55,.74-.67,1.88-.62,2.56,.12,.67,.74,.62,1.88-.12,2.55Z"/></g></g></g></g></g></svg>