<?xml version="1.0" encoding="UTF-8"?><svg id="uuid-2facceca-0667-4200-a6c6-c320999addad" xmlns="http://www.w3.org/2000/svg" viewBox="0 0 208.22 63.59"><defs><style>.uuid-fa621907-bdd4-4f1c-b565-7ee69124fcaf,.uuid-05237701-353a-408f-a71b-b8d37aeace54{fill:#fff;}.uuid-05237701-353a-408f-a71b-b8d37aeace54{fill-rule:evenodd;}</style></defs><g id="uuid-0c2b992b-a4e3-4039-90b1-3d0beb3731d6"><g><path class="uuid-05237701-353a-408f-a71b-b8d37aeace54" d="M31.83,35.16c1.86,0,3.37-1.51,3.37-3.36s-1.51-3.36-3.37-3.36-3.37,1.51-3.37,3.36,1.51,3.36,3.37,3.36m0,3.97c4.06,0,7.35-3.29,7.35-7.34s-3.29-7.34-7.35-7.34-7.35,3.29-7.35,7.34,3.29,7.34,7.35,7.34Z"/><path class="uuid-05237701-353a-408f-a71b-b8d37aeace54" d="M19.59,19.56h24.49v24.46H19.59V19.56Zm12.24,0c6.76,0,12.24,5.48,12.24,12.23s-5.48,12.23-12.24,12.23-12.24-5.48-12.24-12.23,5.48-12.23,12.24-12.23Z"/><path class="uuid-05237701-353a-408f-a71b-b8d37aeace54" d="M14.69,17.96c-3.06,3.78-4.9,8.59-4.9,13.83s1.84,10.05,4.9,13.83V17.96Zm30.99-3.29c-3.78-3.06-8.6-4.89-13.85-4.89s-10.06,1.83-13.85,4.89h27.7Zm3.29,30.95c3.06-3.78,4.9-8.59,4.9-13.83s-1.84-10.05-4.9-13.83v27.66Zm-17.14,8.18c5.25,0,10.06-1.83,13.85-4.89H17.99c3.79,3.06,8.6,4.89,13.85,4.89Z"/><path class="uuid-05237701-353a-408f-a71b-b8d37aeace54" d="M31.83,0c17.58,0,31.83,14.24,31.83,31.79s-14.26,31.79-31.83,31.79S0,49.35,0,31.79,14.26,0,31.83,0m0,4.89c14.87,0,26.94,12.05,26.94,26.9s-12.06,26.9-26.94,26.9S4.9,46.65,4.9,31.79,16.96,4.89,31.83,4.89Z"/><g><path class="uuid-fa621907-bdd4-4f1c-b565-7ee69124fcaf" d="M71.07,14.41h10.61v20.34c0,1.88,.39,3.22,1.18,4.02,.79,.8,2.1,1.2,3.94,1.2s3.08-.39,3.85-1.18c.77-.78,1.16-2.13,1.16-4.04V14.41h10.61v21.17c0,4.14-1.34,7.3-4,9.48-2.67,2.18-6.54,3.27-11.61,3.27s-9-1.09-11.69-3.28-4.04-5.34-4.04-9.47V14.41Z"/><path class="uuid-fa621907-bdd4-4f1c-b565-7ee69124fcaf" d="M108.61,47.41V14.41h24.99v8.31h-14.38v5.11h11.44v7.98h-11.44v11.61h-10.61Z"/><path class="uuid-fa621907-bdd4-4f1c-b565-7ee69124fcaf" d="M147.24,47.41h-9.6V14.41h12.92l4.58,16.47c.06,.22,.18,.74,.36,1.53,.18,.8,.43,1.9,.76,3.31,.21-1.11,.4-2.07,.58-2.9s.34-1.45,.47-1.87l4.69-16.54h12.9V47.41h-9.6l.09-16.24c0-.99,0-1.95,.01-2.88,0-.93,.02-1.9,.03-2.9-.36,1.7-.79,3.56-1.3,5.58l-.07,.29-4.08,16.15h-7.4l-4.13-15.8c-.19-.72-.39-1.54-.58-2.46-.19-.93-.45-2.18-.76-3.76,.04,1.42,.08,2.64,.1,3.65,.02,1.02,.03,1.83,.03,2.44v15.93Z"/><path class="uuid-fa621907-bdd4-4f1c-b565-7ee69124fcaf" d="M188.1,47.41V23.1h-9.51V14.41h29.64v8.69h-9.51v24.31h-10.61Z"/></g></g></g></svg>