<svg width="45" height="36" viewBox="0 0 45 36" fill="none" xmlns="http://www.w3.org/2000/svg">
<path d="M44.2979 4.2616C42.6391 4.99645 40.8796 5.47881 39.078 5.69263C40.9546 4.56787 42.3955 2.78679 43.074 0.664641C41.2901 1.72327 39.3383 2.46914 37.303 2.87002C35.6451 1.10381 33.2833 0 30.6692 0C25.65 0 21.5807 4.06918 21.5807 9.08799C21.5807 9.80039 21.6612 10.4939 21.816 11.1593C14.2629 10.7801 7.56629 7.16207 3.08372 1.66359C2.30159 3.00585 1.85342 4.56718 1.85342 6.23251C1.85342 9.38562 3.458 12.1672 5.89647 13.7971C4.45324 13.7519 3.04176 13.3621 1.77988 12.6602C1.77936 12.6983 1.77936 12.7363 1.77936 12.7746C1.77936 17.1779 4.91205 20.8512 9.06948 21.6861C7.73117 22.05 6.32738 22.1033 4.96534 21.8418C6.12176 25.4524 9.47819 28.0798 13.455 28.1534C10.3446 30.5908 6.42579 32.0438 2.168 32.0438C1.43432 32.0438 0.711016 32.0007 0 31.9168C4.02194 34.4954 8.79902 36 13.9313 36C30.6481 36 39.7892 22.1515 39.7892 10.142C39.7892 9.74779 39.7806 9.35585 39.7629 8.96617C41.5421 7.67995 43.0778 6.08683 44.2979 4.2616Z" fill="white"/>
</svg>
