<svg width="52" height="36" viewBox="0 0 52 36" fill="none" xmlns="http://www.w3.org/2000/svg">
<path d="M50.2689 5.63739C49.9741 4.54778 49.3989 3.55441 48.6008 2.7562C47.8026 1.958 46.8092 1.38282 45.7196 1.08792C41.7306 0 25.676 0 25.676 0C25.676 0 9.62065 0.0329307 5.63161 1.12085C4.54198 1.41576 3.54862 1.99098 2.75045 2.78922C1.95228 3.58746 1.37715 4.58087 1.08234 5.67052C-0.124255 12.7583 -0.592314 23.5584 1.11547 30.3626C1.41032 31.4522 1.98546 32.4456 2.78362 33.2438C3.58179 34.042 4.57514 34.6172 5.66474 34.9121C9.65378 36 25.7088 36 25.7088 36C25.7088 36 41.7635 36 45.7524 34.9121C46.842 34.6172 47.8354 34.042 48.6336 33.2438C49.4318 32.4456 50.007 31.4522 50.3018 30.3626C51.5745 23.2648 51.9667 12.4715 50.2689 5.63759V5.63739Z" fill="white"/>
<path d="M25.5659 25.7141L38.8844 17.9999L25.5659 10.2856V25.7141Z" fill="#1D1D66"/>
</svg>
